<?xml version="1.0" encoding="utf-8"?>
<!-- Generator: Adobe Illustrator 17.0.0, SVG Export Plug-In . SVG Version: 6.00 Build 0)  -->
<!DOCTYPE svg PUBLIC "-//W3C//DTD SVG 1.1//EN" "http://www.w3.org/Graphics/SVG/1.1/DTD/svg11.dtd">
<svg version="1.1" id="Layer_1" xmlns="http://www.w3.org/2000/svg" xmlns:xlink="http://www.w3.org/1999/xlink" x="0px" y="0px"
	 width="423.435px" height="344.214px" viewBox="92.02 69.647 423.435 344.214"
	 enable-background="new 92.02 69.647 423.435 344.214" xml:space="preserve">
<g>
	<path fill="#FFFFFF" d="M384.187,109.512h-228.11c-4.992,0-9.043-4.051-9.043-9.048c0-4.997,4.051-9.048,9.043-9.048h228.11
		c4.992,0,9.048,4.051,9.048,9.048C393.235,105.466,389.179,109.512,384.187,109.512z"/>
</g>
<g>
	<path fill="#FFFFFF" d="M244.766,166.013h-88.69c-4.992,0-9.043-4.051-9.043-9.048c0-5.002,4.051-9.053,9.043-9.053h88.69
		c5.002,0,9.048,4.051,9.048,9.053C253.814,161.962,249.763,166.013,244.766,166.013z"/>
</g>
<g>
	<path fill="#FFFFFF" d="M322.104,279.211H156.072c-4.992,0-9.043-4.046-9.043-9.048c0-4.992,4.051-9.048,9.043-9.048h166.032
		c5.002,0,9.058,4.056,9.058,9.048C331.162,275.165,327.106,279.211,322.104,279.211z"/>
</g>
<g>
	<path fill="#FFFFFF" d="M458.966,279.211h-94.152c-4.992,0-9.043-4.046-9.043-9.048c0-4.992,4.051-9.048,9.043-9.048h94.152
		c4.997,0,9.048,4.056,9.048,9.048C468.014,275.165,463.963,279.211,458.966,279.211z"/>
</g>
<g>
	<path fill="#FFFFFF" d="M456.965,222.528H156.077c-4.992,0-9.043-4.051-9.043-9.048c0-5.002,4.051-9.043,9.043-9.043H456.97
		c4.997,0,9.053,4.046,9.053,9.043C466.018,218.482,461.962,222.528,456.965,222.528z"/>
</g>
<g>
	<path fill="#FFFFFF" d="M121.963,131.362c-2.381,0-4.757-0.931-6.533-2.794l-20.904-21.85c-3.331-3.485-3.346-8.976-0.024-12.48
		l20.626-21.768c3.442-3.629,9.168-3.778,12.797-0.341c3.619,3.437,3.782,9.163,0.346,12.792l-14.707,15.514l14.952,15.619
		c3.446,3.614,3.317,9.341-0.288,12.797C126.466,130.526,124.214,131.362,121.963,131.362z"/>
</g>
<g>
	<path fill="#FFFFFF" d="M121.963,357.302c-2.381,0-4.757-0.926-6.533-2.789l-20.904-21.85c-3.331-3.499-3.346-8.986-0.024-12.49
		l20.626-21.749c3.446-3.624,9.168-3.778,12.797-0.341c3.619,3.442,3.778,9.154,0.346,12.782l-14.707,15.504l14.952,15.619
		c3.446,3.619,3.317,9.341-0.288,12.787C126.466,356.467,124.214,357.302,121.963,357.302z"/>
</g>
<g>
	<path fill="#FFFFFF" d="M401.707,413.861c-2.237,0-4.478-0.826-6.226-2.486c-3.629-3.432-3.778-9.163-0.341-12.792l14.702-15.499
		l-14.942-15.638c-3.461-3.61-3.326-9.331,0.288-12.792c3.61-3.451,9.331-3.322,12.792,0.293l20.899,21.864
		c3.331,3.485,3.341,8.971,0.029,12.475l-20.635,21.763C406.498,412.906,404.102,413.861,401.707,413.861z"/>
</g>
<g>
	<path fill="#FFFFFF" d="M485.779,299.155c-2.237,0-4.474-0.821-6.226-2.482c-3.629-3.437-3.782-9.163-0.346-12.792l14.702-15.514
		l-14.938-15.614c-3.456-3.61-3.322-9.336,0.283-12.797c3.605-3.446,9.336-3.326,12.792,0.288l20.899,21.845
		c3.331,3.48,3.346,8.971,0.029,12.475l-20.626,21.763C490.57,298.214,488.174,299.155,485.779,299.155z"/>
</g>
<g>
	<path fill="#FFFFFF" d="M271.747,335.525h-115.67c-4.992,0-9.043-4.042-9.043-9.048c0-4.992,4.051-9.043,9.043-9.043h115.67
		c4.997,0,9.048,4.051,9.048,9.043C280.795,331.488,276.739,335.525,271.747,335.525z"/>
</g>
<g>
	<path fill="#FFFFFF" d="M456.965,335.496h-142.67c-4.997,0-9.048-4.051-9.048-9.043c0-5.011,4.051-9.053,9.048-9.053H456.97
		c4.997,0,9.053,4.042,9.053,9.053C466.018,331.445,461.962,335.496,456.965,335.496z"/>
</g>
<g>
	<path fill="#FFFFFF" d="M375.917,392.059h-219.84c-4.992,0-9.043-4.056-9.043-9.053c0-5.002,4.051-9.053,9.043-9.053h219.845
		c5.002,0,9.053,4.051,9.053,9.053C384.97,388.003,380.918,392.059,375.917,392.059z"/>
</g>
</svg>
