<?xml version="1.0" encoding="utf-8"?>
<!-- Generator: Adobe Illustrator 17.0.0, SVG Export Plug-In . SVG Version: 6.00 Build 0)  -->
<!DOCTYPE svg PUBLIC "-//W3C//DTD SVG 1.1//EN" "http://www.w3.org/Graphics/SVG/1.1/DTD/svg11.dtd">
<svg version="1.1" id="Layer_1" xmlns="http://www.w3.org/2000/svg" xmlns:xlink="http://www.w3.org/1999/xlink" x="0px" y="0px"
	 width="385.027px" height="328.132px" viewBox="109.964 75.929 385.027 328.132"
	 enable-background="new 109.964 75.929 385.027 328.132" xml:space="preserve">
<circle fill="#FFFFFF" cx="140.196" cy="106.16" r="30.231"/>
<circle fill="#FFFFFF" cx="443.605" cy="108.237" r="30.231"/>
<circle fill="#FFFFFF" cx="140.196" cy="373.829" r="30.231"/>
<path fill="#FFFFFF" d="M420.271,254.619c-41.261,0-74.732,33.449-74.732,74.709c0,41.272,33.471,74.732,74.732,74.732
	c41.249,0,74.721-33.46,74.721-74.732C494.992,288.068,461.52,254.619,420.271,254.619z M405.031,371.605l-36.023-40.437
	l11.266-10.036l25.592,28.73l55.191-53.204l10.476,10.871L405.031,371.605z"/>
<g>
	<g>
		<rect x="166.555" y="99.477" fill="#FFFFFF" width="214.013" height="13.389"/>
	</g>
	<g>
		<g>
			<polygon fill="#FFFFFF" points="353.441,128.862 376.154,106.171 353.441,83.481 372.711,83.481 395.402,106.171 
				372.711,128.862 			"/>
		</g>
	</g>
</g>
<g>
	<g>
		<rect x="163.259" y="367.146" fill="#FFFFFF" width="166.973" height="13.389"/>
	</g>
	<g>
		<g>
			<polygon fill="#FFFFFF" points="303.579,396.531 326.292,373.851 303.59,351.15 322.849,351.161 345.539,373.851 
				322.849,396.531 			"/>
		</g>
	</g>
</g>
<g>
	<g>
		<polygon fill="#FFFFFF" points="198.073,348.722 189.437,338.495 419.605,121.614 428.252,131.842 		"/>
	</g>
	<g>
		<g>
			<polygon fill="#FFFFFF" points="199.304,308.941 196.606,340.922 228.587,343.609 213.866,356.038 181.885,353.34 
				184.583,321.37 			"/>
		</g>
	</g>
</g>
</svg>
